<svg xmlns="http://www.w3.org/2000/svg" version="1.1" xmlns:xlink="http://www.w3.org/1999/xlink" xmlns:svgjs="http://svgjs.dev/svgjs" width="1000" height="1125" viewBox="0 0 1000 1125"><g transform="matrix(1,0,0,1,0,0)"><svg viewBox="0 0 320 360" data-background-color="#ffffff" preserveAspectRatio="xMidYMid meet" xmlns="http://www.w3.org/2000/svg" xmlns:xlink="http://www.w3.org/1999/xlink"><g id="tight-bounds" transform="matrix(1,0,0,1,0,0)"><svg viewBox="0 0 320 360" height="360" width="320"><g><svg></svg></g><g><svg viewBox="0 0 320 360" height="360" width="320"><g><path xmlns="http://www.w3.org/2000/svg" d="M320 187.111c0-45.764-20.238-86.866-52.203-114.908-28.043-31.964-69.145-52.203-114.908-52.203-84.302 0-152.889 68.587-152.889 152.889 0 45.753 20.231 86.848 52.185 114.891 28.043 31.975 69.152 52.22 114.926 52.22 0.299 0 0.59-0.021 0.889-0.021 0.299 0 0.59 0.021 0.889 0.021 83.456 0 151.111-67.655 151.111-151.111 0-0.299-0.021-0.59-0.021-0.889 0-0.299 0.021-0.59 0.021-0.889zM59.833 263.097c-15.093-21.255-24.071-47.143-24.256-75.097 0.48-72.928 59.492-131.943 132.423-132.423 27.954 0.185 53.845 9.163 75.097 24.256 24.366 23.627 39.57 56.64 39.57 93.056 0 71.559-58.219 129.778-129.778 129.778-36.416 0-69.429-15.204-93.056-39.57zM3.556 172.889c0-82.343 66.99-149.333 149.333-149.333 35.051 0 67.292 12.167 92.8 32.462-22.98-13.824-49.863-21.796-78.578-21.796-84.302 0-152.889 68.587-152.889 152.889 0 28.708 7.968 55.584 21.785 78.56-20.288-25.5-32.452-57.739-32.451-92.782zM167.111 318.667c-35.84 0-68.363-14.418-92.107-37.743 21.952 15.89 48.864 25.298 77.885 25.298 73.522 0 133.333-59.812 133.333-133.333 0-29.02-9.408-55.932-25.298-77.885 23.324 23.744 37.742 56.267 37.743 92.107 0 72.54-59.015 131.556-131.556 131.556z" fill="#ba67ff" fill-rule="nonzero" stroke="none" stroke-width="1" stroke-linecap="butt" stroke-linejoin="miter" stroke-miterlimit="10" stroke-dasharray="" stroke-dashoffset="0" font-family="none" font-weight="none" font-size="none" text-anchor="none" style="mix-blend-mode: normal" data-fill-palette-color="tertiary"></path></g><g transform="matrix(1,0,0,1,79,99)"><svg viewBox="0 0 162 162" height="162" width="162"><g><svg viewBox="0 0 162 162" height="162" width="162"><g><svg viewBox="0 0 162 162" height="162" width="162"><g id="textblocktransform"><svg viewBox="0 0 162 162" height="162" width="162" id="textblock"><g><svg viewBox="0 0 162 162" height="162" width="162"><g transform="matrix(1,0,0,1,42.81623381592643,42.81623381592643)"><svg viewBox="0 0 76.36753236814714 76.36753236814714" height="76.36753236814714" width="76.36753236814714"><g><circle r="38" cx="38.18376618407357" cy="38.18376618407357" fill="#b77bff" data-fill-palette-color="accent"></circle></g></svg></g><g><path d="M76.563 15.249l2.684-0.068c4.821-0.123 7.171-2.581 7.048-7.376v0c-0.059-2.301-0.688-4.025-1.888-5.172-1.2-1.141-2.944-1.682-5.232-1.624v0l-2.972 0.076zM75.05 0.116l4.369-0.111c2.58-0.066 4.559 0.559 5.937 1.875 1.378 1.316 2.1 3.297 2.167 5.943 0.068 2.653-0.593 4.69-1.98 6.109-1.381 1.426-3.451 2.174-6.211 2.245v0l-3.87 0.098z" fill="#ba67ff" data-fill-palette-color="primary"></path><path d="M76.308 160.927l2.684 0.069c4.821 0.123 7.293-2.213 7.415-7.008v0c0.059-2.301-0.482-4.055-1.623-5.261-1.141-1.2-2.855-1.829-5.142-1.888v0l-2.973-0.076zM75.567 145.737l4.369 0.111c2.58 0.066 4.525 0.791 5.834 2.175 1.309 1.384 1.93 3.4 1.862 6.046-0.068 2.653-0.83 4.653-2.289 6.001-1.452 1.354-3.558 1.996-6.317 1.925v0l-3.87-0.099z" fill="#ba67ff" data-fill-palette-color="primary"></path><path d="M2.084 83.081c0-3.41 2.765-6.175 6.175-6.175 3.41 0 6.175 2.765 6.174 6.175 0 3.41-2.765 6.175-6.174 6.175-3.41 0-6.175-2.765-6.175-6.175z" fill="#ba67ff" data-fill-palette-color="primary"></path><path d="M147.567 83.081c0-3.41 2.765-6.175 6.174-6.175 3.41 0 6.175 2.765 6.175 6.175 0 3.41-2.765 6.175-6.175 6.175-3.41 0-6.175-2.765-6.174-6.175z" fill="#ba67ff" data-fill-palette-color="primary"></path></g></svg></g></svg></g></svg></g><g></g></svg></g></svg></g></svg></g><defs></defs></svg><rect width="320" height="360" fill="none" stroke="none" visibility="hidden"></rect></g></svg></g></svg>